<svg id="SvgjsSvg1012" width="288" height="288" xmlns="http://www.w3.org/2000/svg" version="1.1" xmlns:xlink="http://www.w3.org/1999/xlink" xmlns:svgjs="http://svgjs.com/svgjs"><rect id="SvgjsRect1018" width="288" height="288" rx="32" ry="32" transform="matrix(1,0,0,1,0,0)" fill="#1b352d"></rect><defs id="SvgjsDefs1013"></defs><g id="SvgjsG1014" transform="matrix(0.56,0,0,0.56,63.359999999999985,63.359999999999985)"><svg xmlns="http://www.w3.org/2000/svg" width="288" height="288" viewBox="0 0 48 48"><path d="M43.98 8c0-2.21-1.77-4-3.98-4h-32c-2.21 0-4 1.79-4 4v24c0 2.21 1.79 4 4 4h28l8 8-.02-36zm-7.98 20h-24v-4h24v4zm0-6h-24v-4h24v4zm0-6h-24v-4h24v4z" fill="#ffffff" class="color000 svgShape"></path><path fill="none" d="M0 0h48v48h-48z"></path></svg></g></svg>
