<svg id="SvgjsSvg1029" width="288" height="288" xmlns="http://www.w3.org/2000/svg" version="1.1" xmlns:xlink="http://www.w3.org/1999/xlink" xmlns:svgjs="http://svgjs.com/svgjs"><defs id="SvgjsDefs1030"></defs><g id="SvgjsG1031"><svg xmlns="http://www.w3.org/2000/svg" id="Layer_1" x="0" y="0" version="1.1" viewBox="0 0 29 29" xml:space="preserve" width="288" height="288"><path d="M10 3v3h9V3a1 1 0 0 0-1-1h-7a1 1 0 0 0-1 1z" fill="#ffffff" class="color000 svgShape"></path><path d="M4 5v1h21V5a1 1 0 00-1-1H5a1 1 0 00-1 1zM6 8l1.812 17.209A2 2 0 009.801 27H19.2a2 2 0 001.989-1.791L23 8H6zm4.577 16.997a.999.999 0 01-1.074-.92l-1-13a1 1 0 01.92-1.074.989.989 0 011.074.92l1 13a1 1 0 01-.92 1.074zM15.5 24a1 1 0 01-2 0V11a1 1 0 012 0v13zm3.997.077a.999.999 0 11-1.994-.154l1-13a.985.985 0 011.074-.92 1 1 0 01.92 1.074l-1 13z" fill="#ffffff" class="color000 svgShape"></path></svg></g></svg>