<svg xmlns="http://www.w3.org/2000/svg" xmlns:xlink="http://www.w3.org/1999/xlink" width="200" zoomAndPan="magnify" viewBox="0 0 150 112.499997" height="150" preserveAspectRatio="xMidYMid meet" version="1.0"><defs><g><g id="id1"/></g><clipPath id="id2"><path d="M 59.753906 30.566406 L 90.367188 30.566406 L 90.367188 61.179688 L 59.753906 61.179688 Z M 59.753906 30.566406 " clip-rule="nonzero"/></clipPath><clipPath id="id3"><path d="M 65 46 L 71 46 L 71 54 L 65 54 Z M 65 46 " clip-rule="nonzero"/></clipPath><clipPath id="id4"><path d="M 62.8125 46.363281 L 81.300781 35.089844 L 87.519531 45.289062 L 69.03125 56.5625 Z M 62.8125 46.363281 " clip-rule="nonzero"/></clipPath><clipPath id="id5"><path d="M 62.8125 46.363281 L 81.300781 35.089844 L 87.519531 45.289062 L 69.03125 56.5625 Z M 62.8125 46.363281 " clip-rule="nonzero"/></clipPath><clipPath id="id6"><path d="M 66 37 L 84 37 L 84 54 L 66 54 Z M 66 37 " clip-rule="nonzero"/></clipPath><clipPath id="id7"><path d="M 62.8125 46.363281 L 81.300781 35.089844 L 87.519531 45.289062 L 69.03125 56.5625 Z M 62.8125 46.363281 " clip-rule="nonzero"/></clipPath><clipPath id="id8"><path d="M 62.8125 46.363281 L 81.300781 35.089844 L 87.519531 45.289062 L 69.03125 56.5625 Z M 62.8125 46.363281 " clip-rule="nonzero"/></clipPath><clipPath id="id9"><path d="M 79 37 L 86 37 L 86 46 L 79 46 Z M 79 37 " clip-rule="nonzero"/></clipPath><clipPath id="id10"><path d="M 62.8125 46.363281 L 81.300781 35.089844 L 87.519531 45.289062 L 69.03125 56.5625 Z M 62.8125 46.363281 " clip-rule="nonzero"/></clipPath><clipPath id="id11"><path d="M 62.8125 46.363281 L 81.300781 35.089844 L 87.519531 45.289062 L 69.03125 56.5625 Z M 62.8125 46.363281 " clip-rule="nonzero"/></clipPath></defs><g clip-path="url(#id2)"><path fill="rgb(94.119263%, 62.748718%, 29.40979%)" d="M 75.054688 61.179688 C 66.621094 61.179688 59.753906 54.3125 59.753906 45.867188 C 59.753906 37.425781 66.621094 30.566406 75.054688 30.566406 C 83.488281 30.566406 90.359375 37.433594 90.359375 45.867188 C 90.367188 54.3125 83.5 61.179688 75.054688 61.179688 Z M 75.054688 30.824219 C 66.757812 30.824219 60.011719 37.570312 60.011719 45.867188 C 60.011719 54.164062 66.769531 60.921875 75.054688 60.921875 C 83.34375 60.921875 90.109375 54.164062 90.109375 45.867188 C 90.109375 37.570312 83.355469 30.824219 75.054688 30.824219 Z M 75.054688 30.824219 " fill-opacity="1" fill-rule="nonzero"/></g><g clip-path="url(#id3)"><g clip-path="url(#id4)"><g clip-path="url(#id5)"><path fill="rgb(9.408569%, 22.749329%, 11.369324%)" d="M 70.621094 52.84375 L 69.695312 53.417969 C 69.5625 53.496094 69.429688 53.597656 69.285156 53.660156 C 69.171875 53.707031 69.066406 53.707031 68.976562 53.617188 C 68.867188 53.511719 68.792969 53.363281 68.714844 53.234375 C 68.617188 53.074219 68.515625 52.917969 68.417969 52.757812 C 68.226562 52.445312 68.035156 52.132812 67.847656 51.820312 C 67.101562 50.570312 66.382812 49.300781 65.691406 48.011719 C 65.617188 47.871094 65.511719 47.71875 65.472656 47.558594 C 65.4375 47.398438 65.570312 47.320312 65.691406 47.246094 L 66.746094 46.605469 C 66.871094 46.527344 66.753906 46.332031 66.625 46.410156 L 65.636719 47.011719 C 65.5 47.09375 65.335938 47.175781 65.269531 47.335938 C 65.210938 47.480469 65.246094 47.628906 65.308594 47.769531 C 65.378906 47.933594 65.472656 48.089844 65.554688 48.246094 C 65.648438 48.417969 65.742188 48.589844 65.832031 48.757812 C 66.015625 49.09375 66.203125 49.429688 66.386719 49.761719 C 66.394531 49.769531 66.398438 49.777344 66.402344 49.789062 C 66.382812 49.789062 66.367188 49.792969 66.347656 49.800781 L 65.871094 50.082031 C 65.742188 50.160156 65.570312 50.230469 65.484375 50.359375 C 65.398438 50.488281 65.445312 50.632812 65.515625 50.753906 C 65.605469 50.910156 65.699219 51.0625 65.792969 51.21875 C 65.9375 51.460938 66.082031 51.703125 66.222656 51.941406 C 66.269531 52.027344 66.324219 52.101562 66.390625 52.167969 C 66.625 52.386719 66.882812 52.417969 67.164062 52.261719 C 67.261719 52.207031 67.363281 52.164062 67.460938 52.105469 C 67.585938 52.027344 67.46875 51.832031 67.339844 51.910156 C 67.261719 51.957031 67.175781 51.996094 67.09375 52.035156 C 67.015625 52.085938 66.929688 52.109375 66.839844 52.113281 C 66.65625 52.113281 66.527344 52.003906 66.4375 51.851562 C 66.320312 51.65625 66.203125 51.460938 66.082031 51.261719 L 65.835938 50.847656 C 65.796875 50.78125 65.757812 50.714844 65.71875 50.652344 C 65.695312 50.613281 65.65625 50.558594 65.664062 50.511719 C 65.667969 50.464844 65.730469 50.433594 65.773438 50.40625 C 65.84375 50.363281 65.914062 50.320312 65.988281 50.28125 L 66.46875 50 C 66.484375 49.992188 66.496094 49.980469 66.507812 49.964844 C 66.847656 50.570312 67.195312 51.167969 67.550781 51.765625 C 67.746094 52.09375 67.945312 52.421875 68.144531 52.746094 C 68.246094 52.914062 68.347656 53.082031 68.453125 53.246094 C 68.542969 53.402344 68.636719 53.550781 68.742188 53.695312 C 68.847656 53.835938 68.992188 53.9375 69.171875 53.921875 C 69.355469 53.910156 69.507812 53.804688 69.65625 53.710938 L 70.742188 53.039062 C 70.867188 52.960938 70.746094 52.765625 70.621094 52.84375 Z M 70.621094 52.84375 " fill-opacity="1" fill-rule="nonzero"/></g></g></g><g clip-path="url(#id6)"><g clip-path="url(#id7)"><g clip-path="url(#id8)"><path fill="rgb(9.408569%, 22.749329%, 11.369324%)" d="M 79.773438 38.886719 C 79.585938 38.597656 79.394531 38.304688 79.199219 38.015625 C 79.035156 37.765625 78.871094 37.527344 78.585938 37.40625 C 78.332031 37.300781 78.078125 37.300781 77.824219 37.40625 C 77.578125 37.507812 77.367188 37.675781 77.148438 37.828125 C 76.882812 38.015625 76.59375 38.175781 76.316406 38.347656 C 76.121094 38.464844 75.996094 38.636719 75.941406 38.855469 C 75.886719 39.078125 75.917969 39.289062 76.035156 39.484375 C 76.21875 39.792969 76.410156 40.097656 76.59375 40.398438 L 78.113281 42.894531 C 77.230469 43.394531 76.355469 43.910156 75.484375 44.433594 C 74.582031 44.972656 73.6875 45.527344 72.800781 46.089844 C 72.296875 46.40625 71.792969 46.730469 71.296875 47.054688 C 71.230469 47.09375 71.21875 47.148438 71.257812 47.210938 L 71.828125 48.164062 C 72.195312 48.773438 72.5625 49.378906 72.933594 49.988281 C 73.175781 50.386719 73.414062 50.78125 73.652344 51.183594 C 73.882812 51.558594 74.035156 51.972656 74.035156 52.421875 C 74.042969 52.644531 74 52.855469 73.90625 53.058594 C 73.828125 53.21875 73.71875 53.355469 73.570312 53.460938 C 73.273438 53.667969 72.890625 53.730469 72.53125 53.679688 C 72.046875 53.613281 71.632812 53.351562 71.285156 53.003906 C 70.824219 52.539062 70.484375 51.964844 70.136719 51.417969 C 69.734375 50.796875 69.34375 50.167969 68.960938 49.539062 C 68.195312 48.28125 67.460938 47.007812 66.746094 45.726562 C 66.597656 45.464844 66.425781 45.199219 66.472656 44.886719 C 66.515625 44.625 66.691406 44.441406 66.90625 44.304688 C 67.15625 44.148438 67.425781 44.039062 67.675781 43.882812 L 68.039062 43.664062 C 68.164062 43.585938 68.289062 43.492188 68.441406 43.460938 C 68.679688 43.414062 68.871094 43.488281 69.023438 43.679688 C 69.058594 43.730469 69.09375 43.78125 69.125 43.839844 L 70.382812 45.898438 C 70.457031 46.027344 70.652344 45.90625 70.578125 45.78125 L 69.296875 43.683594 C 69.242188 43.585938 69.175781 43.5 69.09375 43.421875 C 68.878906 43.238281 68.636719 43.179688 68.363281 43.242188 C 68.199219 43.28125 68.058594 43.378906 67.917969 43.464844 C 67.792969 43.542969 67.664062 43.621094 67.539062 43.699219 C 67.066406 43.984375 66.398438 44.171875 66.261719 44.785156 C 66.226562 44.9375 66.230469 45.089844 66.265625 45.238281 C 66.308594 45.398438 66.375 45.546875 66.460938 45.6875 C 66.644531 46.015625 66.828125 46.339844 67.015625 46.667969 C 67.390625 47.324219 67.769531 47.980469 68.152344 48.632812 C 68.539062 49.28125 68.929688 49.929688 69.332031 50.570312 C 69.714844 51.191406 70.097656 51.816406 70.515625 52.414062 C 70.871094 52.929688 71.296875 53.441406 71.875 53.722656 C 72.257812 53.910156 72.660156 53.96875 73.082031 53.902344 C 73.507812 53.839844 73.832031 53.625 74.058594 53.261719 C 74.335938 52.800781 74.3125 52.183594 74.148438 51.6875 C 74.054688 51.429688 73.933594 51.1875 73.785156 50.957031 L 73.425781 50.363281 C 73.054688 49.746094 72.683594 49.132812 72.3125 48.515625 L 71.511719 47.191406 C 72.363281 46.632812 73.222656 46.089844 74.085938 45.554688 C 74.980469 45 75.882812 44.457031 76.789062 43.921875 C 77.269531 43.644531 77.75 43.363281 78.230469 43.089844 L 78.417969 43.394531 C 78.425781 43.40625 78.433594 43.417969 78.445312 43.425781 L 78.949219 44.261719 L 79 44.34375 L 73.484375 47.707031 C 73.222656 47.863281 72.960938 48.015625 72.707031 48.179688 L 72.691406 48.1875 C 72.566406 48.265625 72.6875 48.460938 72.8125 48.382812 L 78.429688 44.960938 C 78.691406 44.800781 78.953125 44.652344 79.207031 44.484375 L 79.21875 44.480469 C 79.28125 44.4375 79.292969 44.386719 79.253906 44.320312 L 78.484375 43.050781 C 78.449219 42.988281 78.414062 42.929688 78.375 42.871094 C 78.367188 42.859375 78.359375 42.847656 78.347656 42.839844 L 76.308594 39.492188 C 76.21875 39.347656 76.136719 39.214844 76.144531 39.035156 C 76.152344 38.820312 76.246094 38.660156 76.425781 38.546875 C 76.535156 38.480469 76.644531 38.414062 76.753906 38.351562 C 76.882812 38.269531 77.019531 38.191406 77.144531 38.109375 C 77.367188 37.964844 77.570312 37.792969 77.804688 37.671875 C 78.007812 37.5625 78.25 37.519531 78.46875 37.601562 C 78.738281 37.707031 78.878906 37.945312 79.03125 38.175781 C 79.785156 39.308594 80.519531 40.453125 81.234375 41.609375 C 81.59375 42.191406 81.941406 42.773438 82.289062 43.355469 C 82.609375 43.90625 82.949219 44.453125 83.222656 45.027344 C 83.453125 45.5 83.628906 46.03125 83.582031 46.5625 C 83.550781 46.910156 83.425781 47.222656 83.210938 47.5 C 83.105469 47.628906 82.980469 47.734375 82.835938 47.816406 C 82.6875 47.894531 82.535156 47.9375 82.367188 47.945312 C 81.902344 47.957031 81.449219 47.6875 81.128906 47.359375 C 80.910156 47.136719 80.75 46.867188 80.578125 46.605469 C 80.40625 46.347656 80.234375 46.082031 80.058594 45.820312 L 79.953125 45.664062 C 79.871094 45.539062 79.675781 45.65625 79.757812 45.78125 C 80.027344 46.1875 80.300781 46.59375 80.566406 47.003906 C 80.707031 47.226562 80.867188 47.425781 81.054688 47.609375 C 81.261719 47.800781 81.496094 47.949219 81.757812 48.054688 C 82.148438 48.207031 82.570312 48.21875 82.945312 48.019531 C 83.265625 47.84375 83.511719 47.535156 83.652344 47.199219 C 83.820312 46.789062 83.863281 46.363281 83.773438 45.925781 C 83.664062 45.324219 83.367188 44.769531 83.066406 44.242188 C 82.722656 43.640625 82.371094 43.042969 82.015625 42.449219 C 81.289062 41.246094 80.539062 40.058594 79.773438 38.886719 Z M 79.773438 38.886719 " fill-opacity="1" fill-rule="nonzero"/></g></g></g><g clip-path="url(#id9)"><g clip-path="url(#id10)"><g clip-path="url(#id11)"><path fill="rgb(9.408569%, 22.749329%, 11.369324%)" d="M 84.320312 40.085938 C 84.226562 39.929688 84.128906 39.777344 84.035156 39.621094 C 83.957031 39.5 83.878906 39.34375 83.726562 39.304688 C 83.546875 39.261719 83.382812 39.402344 83.246094 39.492188 L 82.820312 39.761719 C 82.441406 39.191406 82.058594 38.625 81.671875 38.0625 C 81.578125 37.925781 81.480469 37.773438 81.332031 37.691406 C 81.152344 37.597656 80.972656 37.660156 80.8125 37.757812 C 80.449219 37.980469 80.085938 38.203125 79.722656 38.425781 C 79.597656 38.503906 79.71875 38.699219 79.84375 38.621094 L 80.777344 38.050781 C 80.847656 38.007812 80.914062 37.960938 80.988281 37.921875 C 81.042969 37.882812 81.101562 37.867188 81.167969 37.871094 C 81.28125 37.890625 81.363281 38.019531 81.421875 38.105469 C 81.84375 38.707031 82.253906 39.316406 82.65625 39.929688 C 83.457031 41.144531 84.238281 42.378906 84.972656 43.640625 C 85.039062 43.753906 85.113281 43.890625 85.03125 44.015625 C 84.949219 44.140625 84.785156 44.214844 84.660156 44.289062 L 83.609375 44.917969 C 83.484375 44.996094 83.605469 45.191406 83.730469 45.117188 L 84.71875 44.523438 C 84.960938 44.375 85.328125 44.207031 85.296875 43.859375 C 85.28125 43.695312 85.1875 43.554688 85.105469 43.417969 C 85.003906 43.25 84.90625 43.082031 84.804688 42.914062 C 84.609375 42.585938 84.410156 42.261719 84.207031 41.933594 C 84.191406 41.910156 84.175781 41.882812 84.164062 41.859375 C 84.199219 41.878906 84.234375 41.878906 84.269531 41.855469 C 84.355469 41.800781 84.433594 41.734375 84.519531 41.675781 C 84.683594 41.578125 84.785156 41.433594 84.824219 41.25 C 84.863281 41.0625 84.828125 40.886719 84.722656 40.730469 Z M 84.585938 40.957031 C 84.617188 41.050781 84.621094 41.148438 84.589844 41.246094 C 84.558594 41.347656 84.496094 41.425781 84.402344 41.480469 C 84.316406 41.539062 84.238281 41.605469 84.152344 41.660156 C 84.113281 41.679688 84.097656 41.710938 84.101562 41.757812 C 83.722656 41.152344 83.335938 40.550781 82.945312 39.949219 L 83.257812 39.753906 L 83.449219 39.632812 C 83.503906 39.59375 83.5625 39.558594 83.625 39.53125 C 83.722656 39.496094 83.789062 39.664062 83.832031 39.730469 L 84.085938 40.136719 L 84.484375 40.777344 C 84.523438 40.835938 84.558594 40.894531 84.585938 40.957031 Z M 84.585938 40.957031 " fill-opacity="1" fill-rule="nonzero"/></g></g></g><g fill="rgb(94.119263%, 62.748718%, 29.40979%)" fill-opacity="1"><g transform="translate(66.258814, 79.557026)"><g><path d="M 0.59375 -3.234375 C 0.832031 -3.253906 1.078125 -3.265625 1.328125 -3.265625 C 1.578125 -3.265625 1.789062 -3.203125 1.96875 -3.078125 C 2.144531 -2.960938 2.234375 -2.789062 2.234375 -2.5625 C 2.234375 -2.382812 2.1875 -2.222656 2.09375 -2.078125 C 2 -1.929688 1.882812 -1.816406 1.75 -1.734375 C 1.96875 -1.671875 2.148438 -1.554688 2.296875 -1.390625 C 2.441406 -1.234375 2.515625 -1.050781 2.515625 -0.84375 C 2.515625 -0.5625 2.421875 -0.34375 2.234375 -0.1875 C 2.054688 -0.0390625 1.8125 0.03125 1.5 0.03125 C 1.1875 0.03125 0.882812 0.015625 0.59375 -0.015625 Z M 1.515625 -0.171875 C 1.742188 -0.171875 1.925781 -0.226562 2.0625 -0.34375 C 2.207031 -0.46875 2.28125 -0.625 2.28125 -0.8125 C 2.28125 -1.007812 2.210938 -1.175781 2.078125 -1.3125 C 1.941406 -1.457031 1.753906 -1.554688 1.515625 -1.609375 C 1.398438 -1.628906 1.269531 -1.640625 1.125 -1.640625 C 0.976562 -1.640625 0.875 -1.640625 0.8125 -1.640625 L 0.8125 -0.1875 C 0.945312 -0.175781 1.179688 -0.171875 1.515625 -0.171875 Z M 2.015625 -2.5625 C 2.015625 -2.726562 1.945312 -2.859375 1.8125 -2.953125 C 1.675781 -3.046875 1.519531 -3.09375 1.34375 -3.09375 C 1.175781 -3.09375 1 -3.082031 0.8125 -3.0625 L 0.8125 -1.828125 C 0.851562 -1.828125 0.925781 -1.828125 1.03125 -1.828125 C 1.144531 -1.828125 1.304688 -1.816406 1.515625 -1.796875 C 1.660156 -1.867188 1.78125 -1.972656 1.875 -2.109375 C 1.96875 -2.242188 2.015625 -2.394531 2.015625 -2.5625 Z M 2.015625 -2.5625 "/></g></g></g><g fill="rgb(94.119263%, 62.748718%, 29.40979%)" fill-opacity="1"><g transform="translate(70.603382, 79.557026)"><g><path d="M 0.59375 0 L 0.59375 -3.25 L 0.8125 -3.25 L 0.8125 -0.203125 L 2.3125 -0.203125 L 2.3125 0 Z M 0.59375 0 "/></g></g></g><g fill="rgb(94.119263%, 62.748718%, 29.40979%)" fill-opacity="1"><g transform="translate(74.502727, 79.557026)"><g><path d="M 0.859375 -0.4375 C 0.554688 -0.757812 0.40625 -1.15625 0.40625 -1.625 C 0.40625 -2.101562 0.554688 -2.503906 0.859375 -2.828125 C 1.160156 -3.148438 1.539062 -3.3125 2 -3.3125 C 2.46875 -3.3125 2.851562 -3.148438 3.15625 -2.828125 C 3.457031 -2.503906 3.609375 -2.101562 3.609375 -1.625 C 3.609375 -1.15625 3.457031 -0.757812 3.15625 -0.4375 C 2.851562 -0.113281 2.46875 0.046875 2 0.046875 C 1.539062 0.046875 1.160156 -0.113281 0.859375 -0.4375 Z M 1.015625 -2.671875 C 0.765625 -2.390625 0.640625 -2.039062 0.640625 -1.625 C 0.640625 -1.207031 0.765625 -0.851562 1.015625 -0.5625 C 1.273438 -0.28125 1.601562 -0.140625 2 -0.140625 C 2.40625 -0.140625 2.734375 -0.28125 2.984375 -0.5625 C 3.242188 -0.851562 3.375 -1.207031 3.375 -1.625 C 3.375 -2.039062 3.242188 -2.390625 2.984375 -2.671875 C 2.734375 -2.960938 2.40625 -3.109375 2 -3.109375 C 1.601562 -3.109375 1.273438 -2.960938 1.015625 -2.671875 Z M 1.015625 -2.671875 "/></g></g></g><g fill="rgb(94.119263%, 62.748718%, 29.40979%)" fill-opacity="1"><g transform="translate(80.001244, 79.557026)"><g><path d="M 2 -3.109375 C 1.601562 -3.109375 1.273438 -2.960938 1.015625 -2.671875 C 0.765625 -2.390625 0.640625 -2.039062 0.640625 -1.625 C 0.640625 -1.21875 0.78125 -0.867188 1.0625 -0.578125 C 1.351562 -0.285156 1.703125 -0.140625 2.109375 -0.140625 C 2.460938 -0.140625 2.753906 -0.191406 2.984375 -0.296875 L 2.984375 -1.625 L 3.203125 -1.625 L 3.203125 -0.1875 C 2.941406 -0.03125 2.570312 0.046875 2.09375 0.046875 C 1.625 0.046875 1.222656 -0.113281 0.890625 -0.4375 C 0.566406 -0.757812 0.40625 -1.15625 0.40625 -1.625 C 0.40625 -2.101562 0.550781 -2.503906 0.84375 -2.828125 C 1.144531 -3.148438 1.53125 -3.3125 2 -3.3125 C 2.363281 -3.3125 2.726562 -3.25 3.09375 -3.125 L 3.046875 -2.9375 C 2.679688 -3.050781 2.332031 -3.109375 2 -3.109375 Z M 2 -3.109375 "/></g></g></g><g fill="rgb(9.408569%, 22.749329%, 11.369324%)" fill-opacity="1"><g transform="translate(37.957769, 72.097971)"><g><path d="M 2.542969 -3.203125 L 2.542969 -4.28125 C 2.542969 -4.28125 2.355469 -3.820312 1.441406 -3.820312 L 0.863281 -3.820312 L 0.863281 -5.957031 C 0.863281 -6.152344 0.886719 -6.289062 0.917969 -6.375 L 2.039062 -6.375 C 4.179688 -6.375 4.433594 -5.6875 4.433594 -5.6875 L 4.246094 -6.558594 L 0.113281 -6.558594 C 0.113281 -6.558594 0.304688 -6.496094 0.304688 -5.949219 L 0.304688 -0.640625 C 0.304688 -0.0976562 0.113281 -0.00390625 0.113281 -0.00390625 L 1.050781 -0.00390625 C 1.050781 -0.00390625 0.863281 -0.0976562 0.863281 -0.640625 L 0.863281 -3.664062 L 1.441406 -3.664062 C 2.355469 -3.664062 2.542969 -3.203125 2.542969 -3.203125 Z M 2.542969 -3.203125 "/></g></g></g><g fill="rgb(9.408569%, 22.749329%, 11.369324%)" fill-opacity="1"><g transform="translate(42.807862, 72.097971)"><g><path d="M 0.113281 -0.00390625 L 1.050781 -0.00390625 C 1.050781 -0.00390625 0.863281 -0.0976562 0.863281 -0.640625 L 0.863281 -5.957031 C 0.863281 -6.5 1.050781 -6.558594 1.050781 -6.558594 L 0.113281 -6.558594 C 0.113281 -6.558594 0.304688 -6.496094 0.304688 -5.949219 L 0.304688 -0.640625 C 0.304688 -0.0976562 0.113281 -0.00390625 0.113281 -0.00390625 Z M 0.113281 -0.00390625 "/></g></g></g><g fill="rgb(9.408569%, 22.749329%, 11.369324%)" fill-opacity="1"><g transform="translate(44.27992, 72.097971)"><g><path d="M 4.820312 -6.558594 L 0.300781 -6.558594 L 0.113281 -5.6875 C 0.113281 -5.6875 0.34375 -6.324219 2.222656 -6.375 C 2.257812 -6.28125 2.292969 -6.132812 2.292969 -5.917969 L 2.292969 -0.609375 C 2.292969 -0.0625 2.097656 -0.00390625 2.097656 -0.00390625 L 3.039062 -0.00390625 C 3.039062 -0.00390625 2.851562 -0.0585938 2.851562 -0.605469 L 2.851562 -5.917969 C 2.851562 -6.132812 2.878906 -6.28125 2.914062 -6.375 C 4.78125 -6.320312 5.007812 -5.6875 5.007812 -5.6875 Z M 4.820312 -6.558594 "/></g></g></g><g fill="rgb(9.408569%, 22.749329%, 11.369324%)" fill-opacity="1"><g transform="translate(49.70597, 72.097971)"><g><path d="M 4.652344 -0.757812 L 0.859375 -6.554688 L 0.113281 -6.554688 C 0.113281 -6.554688 0.332031 -6.417969 0.332031 -5.949219 L 0.332031 -0.640625 C 0.332031 -0.0976562 0.144531 -0.00390625 0.144531 -0.00390625 L 0.632812 -0.00390625 C 0.632812 -0.00390625 0.4375 -0.0976562 0.4375 -0.640625 L 0.4375 -5.957031 C 0.4375 -6.066406 0.449219 -6.15625 0.460938 -6.230469 C 0.511719 -6.15625 4.652344 -0.00390625 4.652344 -0.00390625 L 4.753906 -0.00390625 L 4.757812 -5.957031 C 4.757812 -6.5 4.949219 -6.554688 4.949219 -6.554688 L 4.464844 -6.554688 C 4.464844 -6.554688 4.652344 -6.496094 4.652344 -5.949219 Z M 4.652344 -0.757812 "/></g></g></g><g fill="rgb(9.408569%, 22.749329%, 11.369324%)" fill-opacity="1"><g transform="translate(55.072593, 72.097971)"><g><path d="M 2.519531 -3.203125 L 2.519531 -4.28125 C 2.519531 -4.28125 2.335938 -3.820312 1.421875 -3.820312 L 0.863281 -3.820312 L 0.863281 -5.957031 C 0.863281 -6.152344 0.886719 -6.289062 0.917969 -6.375 L 2.039062 -6.375 C 4.179688 -6.375 4.433594 -5.6875 4.433594 -5.6875 L 4.246094 -6.558594 L 0.113281 -6.558594 C 0.113281 -6.558594 0.304688 -6.496094 0.304688 -5.949219 L 0.304688 -0.640625 C 0.304688 -0.0976562 0.113281 -0.00390625 0.113281 -0.00390625 L 4.246094 -0.00390625 L 4.433594 -0.875 C 4.433594 -0.875 4.179688 -0.183594 2.039062 -0.183594 L 0.929688 -0.183594 C 0.890625 -0.277344 0.863281 -0.425781 0.863281 -0.640625 L 0.863281 -3.664062 L 1.421875 -3.664062 C 2.335938 -3.664062 2.519531 -3.203125 2.519531 -3.203125 Z M 2.519531 -3.203125 "/></g></g></g><g fill="rgb(9.408569%, 22.749329%, 11.369324%)" fill-opacity="1"><g transform="translate(59.922686, 72.097971)"><g><path d="M 4.367188 -1.773438 C 4.367188 -0.796875 3.777344 -0.160156 2.507812 -0.160156 C 1.144531 -0.160156 0.582031 -1.441406 0.503906 -1.730469 L 0.113281 -1.097656 C 0.257812 -0.839844 0.902344 0 2.503906 0 C 4.097656 0 5.101562 -0.527344 5.101562 -1.851562 C 5.101562 -4.140625 1.023438 -3.265625 1.023438 -5.101562 C 1.023438 -6.070312 1.84375 -6.386719 2.476562 -6.386719 C 4.140625 -6.386719 4.394531 -5.074219 4.394531 -5.074219 L 4.578125 -6.078125 C 4.578125 -6.078125 3.691406 -6.554688 2.542969 -6.554688 C 0.703125 -6.554688 0.445312 -5.351562 0.445312 -5.09375 C 0.445312 -2.734375 4.367188 -3.6875 4.367188 -1.773438 Z M 4.367188 -1.773438 "/></g></g></g><g fill="rgb(9.408569%, 22.749329%, 11.369324%)" fill-opacity="1"><g transform="translate(65.440157, 72.097971)"><g><path d="M 4.367188 -1.773438 C 4.367188 -0.796875 3.777344 -0.160156 2.507812 -0.160156 C 1.144531 -0.160156 0.582031 -1.441406 0.503906 -1.730469 L 0.113281 -1.097656 C 0.257812 -0.839844 0.902344 0 2.503906 0 C 4.097656 0 5.101562 -0.527344 5.101562 -1.851562 C 5.101562 -4.140625 1.023438 -3.265625 1.023438 -5.101562 C 1.023438 -6.070312 1.84375 -6.386719 2.476562 -6.386719 C 4.140625 -6.386719 4.394531 -5.074219 4.394531 -5.074219 L 4.578125 -6.078125 C 4.578125 -6.078125 3.691406 -6.554688 2.542969 -6.554688 C 0.703125 -6.554688 0.445312 -5.351562 0.445312 -5.09375 C 0.445312 -2.734375 4.367188 -3.6875 4.367188 -1.773438 Z M 4.367188 -1.773438 "/></g></g></g><g fill="rgb(9.408569%, 22.749329%, 11.369324%)" fill-opacity="1"><g transform="translate(70.957628, 72.097971)"><g/></g></g><g fill="rgb(9.408569%, 22.749329%, 11.369324%)" fill-opacity="1"><g transform="translate(73.549603, 72.097971)"><g><path d="M 2.542969 -3.203125 L 2.542969 -4.28125 C 2.542969 -4.28125 2.355469 -3.820312 1.441406 -3.820312 L 0.863281 -3.820312 L 0.863281 -5.957031 C 0.863281 -6.152344 0.886719 -6.289062 0.917969 -6.375 L 2.039062 -6.375 C 4.179688 -6.375 4.433594 -5.6875 4.433594 -5.6875 L 4.246094 -6.558594 L 0.113281 -6.558594 C 0.113281 -6.558594 0.304688 -6.496094 0.304688 -5.949219 L 0.304688 -0.640625 C 0.304688 -0.0976562 0.113281 -0.00390625 0.113281 -0.00390625 L 1.050781 -0.00390625 C 1.050781 -0.00390625 0.863281 -0.0976562 0.863281 -0.640625 L 0.863281 -3.664062 L 1.441406 -3.664062 C 2.355469 -3.664062 2.542969 -3.203125 2.542969 -3.203125 Z M 2.542969 -3.203125 "/></g></g></g><g fill="rgb(9.408569%, 22.749329%, 11.369324%)" fill-opacity="1"><g transform="translate(78.399698, 72.097971)"><g><path d="M 4.6875 -0.00390625 L 5.625 -0.00390625 C 5.625 -0.00390625 5.402344 -0.0976562 5.1875 -0.640625 L 2.871094 -6.554688 L 0.554688 -0.640625 C 0.34375 -0.0976562 0.113281 -0.00390625 0.113281 -0.00390625 L 0.597656 -0.00390625 C 0.597656 -0.00390625 0.449219 -0.0976562 0.660156 -0.640625 L 1.183594 -1.976562 L 4.109375 -1.976562 L 4.628906 -0.640625 C 4.84375 -0.0976562 4.6875 -0.00390625 4.6875 -0.00390625 Z M 1.226562 -2.085938 L 2.644531 -5.714844 L 4.066406 -2.085938 Z M 1.226562 -2.085938 "/></g></g></g><g fill="rgb(9.408569%, 22.749329%, 11.369324%)" fill-opacity="1"><g transform="translate(84.442844, 72.097971)"><g><path d="M 4.652344 -0.757812 L 0.859375 -6.554688 L 0.113281 -6.554688 C 0.113281 -6.554688 0.332031 -6.417969 0.332031 -5.949219 L 0.332031 -0.640625 C 0.332031 -0.0976562 0.144531 -0.00390625 0.144531 -0.00390625 L 0.632812 -0.00390625 C 0.632812 -0.00390625 0.4375 -0.0976562 0.4375 -0.640625 L 0.4375 -5.957031 C 0.4375 -6.066406 0.449219 -6.15625 0.460938 -6.230469 C 0.511719 -6.15625 4.652344 -0.00390625 4.652344 -0.00390625 L 4.753906 -0.00390625 L 4.757812 -5.957031 C 4.757812 -6.5 4.949219 -6.554688 4.949219 -6.554688 L 4.464844 -6.554688 C 4.464844 -6.554688 4.652344 -6.496094 4.652344 -5.949219 Z M 4.652344 -0.757812 "/></g></g></g><g fill="rgb(9.408569%, 22.749329%, 11.369324%)" fill-opacity="1"><g transform="translate(89.809468, 72.097971)"><g><path d="M 4.6875 -0.00390625 L 5.625 -0.00390625 C 5.625 -0.00390625 5.402344 -0.0976562 5.1875 -0.640625 L 2.871094 -6.554688 L 0.554688 -0.640625 C 0.34375 -0.0976562 0.113281 -0.00390625 0.113281 -0.00390625 L 0.597656 -0.00390625 C 0.597656 -0.00390625 0.449219 -0.0976562 0.660156 -0.640625 L 1.183594 -1.976562 L 4.109375 -1.976562 L 4.628906 -0.640625 C 4.84375 -0.0976562 4.6875 -0.00390625 4.6875 -0.00390625 Z M 1.226562 -2.085938 L 2.644531 -5.714844 L 4.066406 -2.085938 Z M 1.226562 -2.085938 "/></g></g></g><g fill="rgb(9.408569%, 22.749329%, 11.369324%)" fill-opacity="1"><g transform="translate(95.852611, 72.097971)"><g><path d="M 4.820312 -6.558594 L 0.300781 -6.558594 L 0.113281 -5.6875 C 0.113281 -5.6875 0.34375 -6.324219 2.222656 -6.375 C 2.257812 -6.28125 2.292969 -6.132812 2.292969 -5.917969 L 2.292969 -0.609375 C 2.292969 -0.0625 2.097656 -0.00390625 2.097656 -0.00390625 L 3.039062 -0.00390625 C 3.039062 -0.00390625 2.851562 -0.0585938 2.851562 -0.605469 L 2.851562 -5.917969 C 2.851562 -6.132812 2.878906 -6.28125 2.914062 -6.375 C 4.78125 -6.320312 5.007812 -5.6875 5.007812 -5.6875 Z M 4.820312 -6.558594 "/></g></g></g><g fill="rgb(9.408569%, 22.749329%, 11.369324%)" fill-opacity="1"><g transform="translate(101.278661, 72.097971)"><g><path d="M 0.113281 -0.00390625 L 1.050781 -0.00390625 C 1.050781 -0.00390625 0.863281 -0.0976562 0.863281 -0.640625 L 0.863281 -5.957031 C 0.863281 -6.5 1.050781 -6.558594 1.050781 -6.558594 L 0.113281 -6.558594 C 0.113281 -6.558594 0.304688 -6.496094 0.304688 -5.949219 L 0.304688 -0.640625 C 0.304688 -0.0976562 0.113281 -0.00390625 0.113281 -0.00390625 Z M 0.113281 -0.00390625 "/></g></g></g><g fill="rgb(9.408569%, 22.749329%, 11.369324%)" fill-opacity="1"><g transform="translate(102.750721, 72.097971)"><g><path d="M 5.414062 -1.015625 L 5.046875 -1.261719 C 4.625 -0.539062 4.121094 -0.214844 3 -0.214844 C 1.730469 -0.214844 0.695312 -1.175781 0.695312 -3.289062 C 0.695312 -5.398438 2.035156 -6.382812 3 -6.382812 C 4.171875 -6.382812 4.644531 -6.074219 5.238281 -5.105469 L 5.546875 -5.945312 C 5.035156 -5.808594 4.785156 -6.558594 3.191406 -6.558594 C 1.390625 -6.558594 0.113281 -5.355469 0.113281 -3.273438 C 0.113281 -1.199219 1.410156 -0.00390625 3 -0.00390625 C 4.0625 -0.00390625 4.886719 -0.316406 5.414062 -1.015625 Z M 5.414062 -1.015625 "/></g></g></g><g fill="rgb(9.408569%, 22.749329%, 11.369324%)" fill-opacity="1"><g transform="translate(108.716158, 72.097971)"><g><path d="M 4.367188 -1.773438 C 4.367188 -0.796875 3.777344 -0.160156 2.507812 -0.160156 C 1.144531 -0.160156 0.582031 -1.441406 0.503906 -1.730469 L 0.113281 -1.097656 C 0.257812 -0.839844 0.902344 0 2.503906 0 C 4.097656 0 5.101562 -0.527344 5.101562 -1.851562 C 5.101562 -4.140625 1.023438 -3.265625 1.023438 -5.101562 C 1.023438 -6.070312 1.84375 -6.386719 2.476562 -6.386719 C 4.140625 -6.386719 4.394531 -5.074219 4.394531 -5.074219 L 4.578125 -6.078125 C 4.578125 -6.078125 3.691406 -6.554688 2.542969 -6.554688 C 0.703125 -6.554688 0.445312 -5.351562 0.445312 -5.09375 C 0.445312 -2.734375 4.367188 -3.6875 4.367188 -1.773438 Z M 4.367188 -1.773438 "/></g></g></g></svg>