<svg id="SvgjsSvg1019" width="288" height="288" xmlns="http://www.w3.org/2000/svg" version="1.1" xmlns:xlink="http://www.w3.org/1999/xlink" xmlns:svgjs="http://svgjs.com/svgjs"><rect id="SvgjsRect1025" width="288" height="288" rx="25" ry="25" transform="matrix(1,0,0,1,0,0)" fill="#f79313"></rect><defs id="SvgjsDefs1020"></defs><g id="SvgjsG1021" transform="matrix(0.4652,0,0,0.4652,77.0112,77.0112)"><svg xmlns="http://www.w3.org/2000/svg" viewBox="0 0 16 16" width="288" height="288"><path fill="#f5cea1" d="M0 7.5v7a.5.5 0 0 0 .5.5H5V7H.5a.5.5 0 0 0-.5.5z" class="color1565C0 svgShape"></path><path fill="#f9efe5" d="M14 6h-4V3c0-1.103-.897-2-2-2H6.5a.5.5 0 0 0-.5.5v2.367L4.066 7.252A.493.493 0 0 0 4 7.5v7a.5.5 0 0 0 .5.5h8.025a2 2 0 0 0 1.827-1.188l1.604-3.609A.491.491 0 0 0 16 10V8c0-1.103-.897-2-2-2z" class="colorBBDEFB svgShape"></path></svg></g></svg>